<svg width="18" height="18" viewBox="0 0 18 18" fill="none" xmlns="http://www.w3.org/2000/svg">
<path fill-rule="evenodd" clip-rule="evenodd" d="M13.9091 0H4.09091C1.83156 0 0 1.83156 0 4.09091V13.9091C0 14.9941 0.431005 16.0346 1.1982 16.8018C1.96539 17.569 3.00593 18 4.09091 18H13.9091C16.1684 18 18 16.1684 18 13.9091V4.09091C18 3.00593 17.569 1.96539 16.8018 1.1982C16.0346 0.431005 14.9941 0 13.9091 0ZM3.27273 4.09091C2.82086 4.09091 2.45455 3.7246 2.45455 3.27273C2.45455 2.82086 2.82086 2.45455 3.27273 2.45455C3.7246 2.45455 4.09091 2.82086 4.09091 3.27273C4.09091 3.7246 3.7246 4.09091 3.27273 4.09091ZM4.09091 9C4.09091 11.7112 6.28878 13.9091 9 13.9091C10.302 13.9091 11.5506 13.3919 12.4713 12.4713C13.3919 11.5506 13.9091 10.302 13.9091 9C13.9091 6.28878 11.7112 4.09091 9 4.09091C6.28878 4.09091 4.09091 6.28878 4.09091 9Z" fill="white"/>
</svg>
