<svg width="16" height="17" viewBox="0 0 16 17" fill="none" xmlns="http://www.w3.org/2000/svg">
<path d="M15.086 11.4L11.949 10.008C11.311 9.72581 10.563 9.90706 10.125 10.45L9.178 11.635C7.64334 10.6587 6.34171 9.35744 5.365 7.82304L6.549 6.87704C7.09394 6.43947 7.27618 5.68996 6.993 5.05104L5.6 1.91404C5.29438 1.22593 4.53579 0.859959 3.807 1.04904L1.155 1.73804C0.397732 1.93586 -0.0919769 2.6687 0.0149961 3.44404C1.02372 10.4628 6.53814 15.9768 13.557 16.985C13.6272 16.995 13.6981 17 13.769 17C14.4712 16.9996 15.0846 16.5254 15.262 15.846L15.95 13.193C16.1419 12.4642 15.7756 11.7041 15.086 11.4Z" fill="white"/>
</svg>
