<svg xmlns="http://www.w3.org/2000/svg" width="22.147" height="27.004" viewBox="0 0 22.147 27.004">
  <g id="company_1_" data-name="company (1)" transform="translate(-46.022)">
    <path id="Контур_44006" data-name="Контур 44006" d="M53.364,138.738c-4.018-.023-7.342-8.226-7.342-12.4,0-6.824,5.119-8.318,7.092-8.318a8.161,8.161,0,0,1,2.676.658,5.981,5.981,0,0,0,1.528.438,4.755,4.755,0,0,0,1.1-.355,8.785,8.785,0,0,1,3.3-.8h.008a6.772,6.772,0,0,1,5.667,2.862l.413.621-.6.449a5,5,0,0,0-2.4,4.127,4.659,4.659,0,0,0,2.6,4.307c.372.224.758.455.758.96,0,.33-2.633,7.413-6.456,7.413a5.192,5.192,0,0,1-2.18-.529,4.421,4.421,0,0,0-1.94-.467,4.99,4.99,0,0,0-1.536.416,7.526,7.526,0,0,1-2.665.622Z" transform="translate(0 -111.738)" fill="#fff"/>
    <path id="Контур_44007" data-name="Контур 44007" d="M260.227,0c.1,3.59-2.468,6.08-5.032,5.924C254.772,3.059,257.759,0,260.227,0Z" transform="translate(-198.104)" fill="#fff"/>
  </g>
</svg>
