<svg xmlns="http://www.w3.org/2000/svg" width="13.201" height="16.656" viewBox="0 0 13.201 16.656">
  <g id="bell_2_" data-name="bell (2)" transform="translate(-53.013)">
    <path id="Контур_44276" data-name="Контур 44276" d="M184.9,465.044a2.516,2.516,0,0,0,4.606,0Z" transform="translate(-127.593 -449.891)" fill="#fff"/>
    <path id="Контур_44277" data-name="Контур 44277" d="M198.209,1.591a5.659,5.659,0,0,1,1.932.339V1.855A1.858,1.858,0,0,0,198.286,0h-.154a1.858,1.858,0,0,0-1.855,1.855v.073A5.67,5.67,0,0,1,198.209,1.591Z" transform="translate(-138.595)" fill="#fff"/>
    <path id="Контур_44278" data-name="Контур 44278" d="M65.713,90.443h-12.2a.5.5,0,0,1-.49-.381.474.474,0,0,1,.261-.54,2.588,2.588,0,0,0,.788-1.071,12.373,12.373,0,0,0,.821-4.9,4.719,4.719,0,0,1,9.438-.019q0,.009,0,.019a12.373,12.373,0,0,0,.821,4.9,2.588,2.588,0,0,0,.788,1.071.474.474,0,0,1,.261.54A.5.5,0,0,1,65.713,90.443Zm.235-.917h0Z" transform="translate(0 -76.267)" fill="#fff"/>
  </g>
</svg>
