<svg xmlns="http://www.w3.org/2000/svg" width="22.185" height="25.089" viewBox="0 0 22.185 25.089">
  <g id="google-play_1_" data-name="google-play (1)" transform="translate(-29.6 0)">
    <path id="Контур_44008" data-name="Контур 44008" d="M264.671,169.792l-4.249-2.454-5.821,4.35,5.821,4.35,4.263-2.462a2.208,2.208,0,0,0-.014-3.783Z" transform="translate(-213.962 -159.128)" fill="#4fcfb1"/>
    <path id="Контур_44009" data-name="Контур 44009" d="M42.111,24.691,36.96,31.314l-6.7,5.274A2.236,2.236,0,0,1,29.6,35V14.347a2.236,2.236,0,0,1,.662-1.589l6.7,5.31Z" transform="translate(0 -12.132)" fill="#fff"/>
    <path id="Контур_44010" data-name="Контур 44010" d="M59.305,8.2l-4.356,4.356L43.1.626a3.319,3.319,0,0,1,.456-.339,2.179,2.179,0,0,1,2.237.044l7.683,4.515Z" transform="translate(-12.838)" fill="#b8f5e4"/>
    <path id="Контур_44011" data-name="Контур 44011" d="M59.305,260.356l-5.828,3.356-7.7,4.494a2.242,2.242,0,0,1-1.133.324,2.284,2.284,0,0,1-1.089-.294,3.318,3.318,0,0,1-.456-.338L54.949,256Z" transform="translate(-12.838 -243.441)" fill="#068d58"/>
  </g>
</svg>
